<svg width="92" height="41" viewBox="0 0 92 41" fill="none" xmlns="http://www.w3.org/2000/svg">
<g clip-path="url(#clip0_535_700)">
<path d="M0 13.8592C0 6.20497 6.2567 0 13.9747 0H79.1899C86.2646 0 92 5.68788 92 12.7042V41H13.9747C6.2567 41 0 34.795 0 27.1408V13.8592Z" fill="#08F970"/>
<path d="M20.4773 28.0648C18.788 28.0648 17.3493 27.4627 16.1615 26.2585C14.9736 25.0412 14.3797 23.5818 14.3797 21.8801C14.3797 20.1785 14.9736 18.7256 16.1615 17.5214C17.3493 16.3173 18.788 15.7151 20.4773 15.7151C22.1799 15.7151 23.6779 16.3762 24.9713 17.6981L22.8332 19.6026C22.1601 18.9089 21.3748 18.562 20.4773 18.562C19.5799 18.562 18.8143 18.8893 18.1808 19.5437C17.5605 20.1851 17.2503 20.9639 17.2503 21.8801C17.2503 22.7964 17.5605 23.5818 18.1808 24.2362C18.8143 24.8776 19.5799 25.1983 20.4773 25.1983C21.0712 25.1983 21.619 25.0477 22.1205 24.7467C22.6352 24.4325 23.0378 24.0006 23.3282 23.4508L25.882 24.7467C25.3409 25.7807 24.5886 26.5923 23.6251 27.1813C22.6617 27.7703 21.6124 28.0648 20.4773 28.0648ZM34.2643 28.2219V21.1144C34.2643 20.473 34.1521 19.9233 33.9277 19.4652C33.7033 18.994 33.2678 18.7584 32.6211 18.7584C31.948 18.7584 31.3672 18.994 30.8789 19.4652C30.4038 19.9233 30.0936 20.4861 29.9484 21.1537L30.0078 28.0452L26.8996 27.9666V13.791H29.889L29.9286 17.2662C30.6149 16.363 31.6114 15.9115 32.918 15.9115C34.2378 15.9115 35.2805 16.3696 36.0461 17.2858C36.8115 18.2021 37.2009 19.3343 37.2141 20.6825V28.1433L34.2643 28.2219ZM50.6286 28.1237H48.4904L48.0747 26.926C47.0056 27.7114 45.8046 28.1106 44.4716 28.1237C42.769 28.1237 41.3172 27.515 40.1161 26.2977C38.9151 25.0673 38.3145 23.5948 38.3145 21.8801C38.3145 20.1655 38.9151 18.6995 40.1161 17.4822C41.3172 16.2649 42.769 15.6562 44.4716 15.6562C45.7782 15.6562 46.966 16.0358 48.0351 16.795L48.4904 15.6562H50.6286V28.1237ZM44.4716 25.159C45.3426 25.159 46.0884 24.8383 46.7087 24.1969C47.329 23.5555 47.6392 22.7833 47.6392 21.8801C47.6392 20.977 47.329 20.2113 46.7087 19.583C46.0884 18.9416 45.3426 18.6209 44.4716 18.6209C43.6005 18.6209 42.8547 18.9416 42.2344 19.583C41.6141 20.2113 41.304 20.977 41.304 21.8801C41.304 22.7833 41.6141 23.5555 42.2344 24.1969C42.8547 24.8383 43.6005 25.159 44.4716 25.159ZM56.5984 28.2415L53.3715 28.1237L53.4902 18.8762H51.7679V16.4416H53.5298L53.5694 13.9481L56.4797 13.791L56.4995 16.4416H58.9149V18.8762H56.5192L56.5984 28.2415ZM64.177 28.2415L60.95 28.1237L61.0688 18.8762H59.3464V16.4416H61.1084L61.148 13.9481L64.0582 13.791L64.078 16.4416H66.4933V18.8762H64.0978L64.177 28.2415ZM71.7361 32.934L69.0832 31.7756L70.667 28.0059H70.0731L66.7076 17.0699L69.3604 16.0489L71.9143 24.9037L75.4778 16.1274L77.9921 17.4233L76.2103 21.6053L71.7361 32.934Z" fill="#097837"/>
</g>
<defs>
<clipPath id="clip0_535_700">
<rect width="92" height="41" fill="white"/>
</clipPath>
</defs>
</svg>
